grf
version=1
nRows=28
nColumns=46
inDegrees=yes
endheader
time	ground_force_1_vx	ground_force_1_vy	ground_force_1_vz	ground_force_1_px	ground_force_1_py	ground_force_1_pz	ground_moment_1_mx	ground_moment_1_my	ground_moment_1_mz	ground_force_2_vx	ground_force_2_vy	ground_force_2_vz	ground_force_2_px	ground_force_2_py	ground_force_2_pz	ground_moment_2_mx	ground_moment_2_my	ground_moment_2_mz	ground_force_3_vx	ground_force_3_vy	ground_force_3_vz	ground_force_3_px	ground_force_3_py	ground_force_3_pz	ground_moment_3_mx	ground_moment_3_my	ground_moment_3_mz	ground_force_4_vx	ground_force_4_vy	ground_force_4_vz	ground_force_4_px	ground_force_4_py	ground_force_4_pz	ground_moment_4_mx	ground_moment_4_my	ground_moment_4_mz	ground_force_5_vx	ground_force_5_vy	ground_force_5_vz	ground_force_5_px	ground_force_5_py	ground_force_5_pz	ground_moment_5_mx	ground_moment_5_my	ground_moment_5_mz
1.757500	0.000000	0.000000	0.000000	0.000000	0.000000	0.000000	0.000000	0.000000	0.000000	0.000000	0.000000	0.000000	0.000000	0.000000	0.000000	0.000000	0.000000	0.000000	0.000000	0.000000	0.000000	0.000000	0.000000	0.000000	0.000000	0.000000	0.000000	142.832989	580.814997	15.725051	1.005600	0.000000	0.117684	0.000000	-0.514794	-0.000000	0.000000	0.000000	0.000000	0.000000	0.000000	0.000000	0.000000	0.000000	0.000000
1.758000	0.000000	0.000000	0.000000	0.000000	0.000000	0.000000	0.000000	0.000000	0.000000	0.000000	0.000000	0.000000	0.000000	0.000000	0.000000	0.000000	0.000000	0.000000	0.000000	0.000000	0.000000	0.000000	0.000000	0.000000	0.000000	0.000000	0.000000	143.137733	578.783550	15.655588	1.005624	0.000000	0.117663	0.000000	-0.499093	-0.000000	0.000000	0.000000	0.000000	0.000000	0.000000	0.000000	0.000000	0.000000	0.000000
1.758500	0.000000	0.000000	0.000000	0.000000	0.000000	0.000000	0.000000	0.000000	0.000000	0.000000	0.000000	0.000000	0.000000	0.000000	0.000000	0.000000	0.000000	0.000000	0.000000	0.000000	0.000000	0.000000	0.000000	0.000000	0.000000	0.000000	0.000000	143.434109	576.717746	15.581489	1.005648	0.000000	0.117642	0.000000	-0.483632	-0.000000	0.000000	0.000000	0.000000	0.000000	0.000000	0.000000	0.000000	0.000000	0.000000
1.759000	0.000000	0.000000	0.000000	0.000000	0.000000	0.000000	0.000000	0.000000	0.000000	0.000000	0.000000	0.000000	0.000000	0.000000	0.000000	0.000000	0.000000	0.000000	0.000000	0.000000	0.000000	0.000000	0.000000	0.000000	0.000000	0.000000	0.000000	143.721894	574.617366	15.502721	1.005670	0.000000	0.117621	0.000000	-0.468418	-0.000000	0.000000	0.000000	0.000000	0.000000	0.000000	0.000000	0.000000	0.000000	0.000000
1.759500	0.000000	0.000000	0.000000	0.000000	0.000000	0.000000	0.000000	0.000000	0.000000	0.000000	0.000000	0.000000	0.000000	0.000000	0.000000	0.000000	0.000000	0.000000	0.000000	0.000000	0.000000	0.000000	0.000000	0.000000	0.000000	0.000000	0.000000	144.000855	572.482173	15.419248	1.005692	0.000000	0.117599	0.000000	-0.453458	-0.000000	0.000000	0.000000	0.000000	0.000000	0.000000	0.000000	0.000000	0.000000	0.000000
1.760000	0.000000	0.000000	0.000000	0.000000	0.000000	0.000000	0.000000	0.000000	0.000000	0.000000	0.000000	0.000000	0.000000	0.000000	0.000000	0.000000	0.000000	0.000000	0.000000	0.000000	0.000000	0.000000	0.000000	0.000000	0.000000	0.000000	0.000000	144.270752	570.311912	15.331035	1.005713	0.000000	0.117577	0.000000	-0.438760	-0.000000	0.000000	0.000000	0.000000	0.000000	0.000000	0.000000	0.000000	0.000000	0.000000
1.760500	0.000000	0.000000	0.000000	0.000000	0.000000	0.000000	0.000000	0.000000	0.000000	0.000000	0.000000	0.000000	0.000000	0.000000	0.000000	0.000000	0.000000	0.000000	0.000000	0.000000	0.000000	0.000000	0.000000	0.000000	0.000000	0.000000	0.000000	144.531337	568.106310	15.238045	1.005733	0.000000	0.117555	0.000000	-0.424331	-0.000000	0.000000	0.000000	0.000000	0.000000	0.000000	0.000000	0.000000	0.000000	0.000000
1.761000	0.000000	0.000000	0.000000	0.000000	0.000000	0.000000	0.000000	0.000000	0.000000	0.000000	0.000000	0.000000	0.000000	0.000000	0.000000	0.000000	0.000000	0.000000	0.000000	0.000000	0.000000	0.000000	0.000000	0.000000	0.000000	0.000000	0.000000	144.782352	565.865069	15.140236	1.005752	0.000000	0.117533	0.000000	-0.410175	-0.000000	-5.861893	97.026643	12.217386	1.566960	0.000000	0.223486	0.000000	-0.078337	-0.000000
1.761500	0.000000	0.000000	0.000000	0.000000	0.000000	0.000000	0.000000	0.000000	0.000000	0.000000	0.000000	0.000000	0.000000	0.000000	0.000000	0.000000	0.000000	0.000000	0.000000	0.000000	0.000000	0.000000	0.000000	0.000000	0.000000	0.000000	0.000000	145.023524	563.587872	15.037567	1.005770	0.000000	0.117510	0.000000	-0.396300	-0.000000	-6.789229	105.588368	13.088330	1.568933	0.000000	0.221818	0.000000	-0.077107	-0.000000
1.762000	0.000000	0.000000	0.000000	0.000000	0.000000	0.000000	0.000000	0.000000	0.000000	0.000000	0.000000	0.000000	0.000000	0.000000	0.000000	0.000000	0.000000	0.000000	0.000000	0.000000	0.000000	0.000000	0.000000	0.000000	0.000000	0.000000	0.000000	145.254571	561.274386	14.929993	1.005787	0.000000	0.117487	0.000000	-0.382712	-0.000000	-7.736121	114.221584	13.975907	1.570908	0.000000	0.220152	0.000000	-0.075785	-0.000000
1.762500	0.000000	0.000000	0.000000	0.000000	0.000000	0.000000	0.000000	0.000000	0.000000	0.000000	0.000000	0.000000	0.000000	0.000000	0.000000	0.000000	0.000000	0.000000	0.000000	0.000000	0.000000	0.000000	0.000000	0.000000	0.000000	0.000000	0.000000	145.475202	558.924262	14.817471	1.005803	0.000000	0.117464	0.000000	-0.369419	-0.000000	-8.701319	122.903946	14.878327	1.572879	0.000000	0.218494	0.000000	-0.074367	-0.000000
1.763000	0.000000	0.000000	0.000000	0.000000	0.000000	0.000000	0.000000	0.000000	0.000000	0.000000	0.000000	0.000000	0.000000	0.000000	0.000000	0.000000	0.000000	0.000000	0.000000	0.000000	0.000000	0.000000	0.000000	0.000000	0.000000	0.000000	0.000000	145.685115	556.537141	14.699961	1.005819	0.000000	0.117441	-0.000000	-0.356427	-0.000000	-9.683506	131.611974	15.793618	1.574841	0.000000	0.216847	0.000000	-0.072852	-0.000000
1.763500	0.000000	0.000000	0.000000	0.000000	0.000000	0.000000	0.000000	0.000000	0.000000	0.000000	0.000000	0.000000	0.000000	0.000000	0.000000	0.000000	0.000000	0.000000	0.000000	0.000000	0.000000	0.000000	0.000000	0.000000	0.000000	0.000000	0.000000	145.884002	554.112658	14.577426	1.005833	0.000000	0.117418	-0.000000	-0.343740	-0.000000	-10.681314	140.321118	16.719635	1.576787	0.000000	0.215217	0.000000	-0.071241	-0.000000
1.764000	0.000000	0.000000	0.000000	0.000000	0.000000	0.000000	0.000000	0.000000	0.000000	0.000000	0.000000	0.000000	0.000000	0.000000	0.000000	0.000000	0.000000	0.000000	0.000000	0.000000	0.000000	0.000000	0.000000	0.000000	0.000000	0.000000	0.000000	146.071549	551.650435	14.449828	1.005847	0.000000	0.117395	-0.000000	-0.331361	-0.000000	-11.693335	149.005890	17.654055	1.578714	0.000000	0.213608	0.000000	-0.069536	-0.000000
1.764500	0.000000	0.000000	0.000000	0.000000	0.000000	0.000000	0.000000	0.000000	0.000000	0.000000	0.000000	0.000000	0.000000	0.000000	0.000000	0.000000	0.000000	0.000000	0.000000	0.000000	0.000000	0.000000	0.000000	0.000000	0.000000	0.000000	0.000000	146.247428	549.150087	14.317136	1.005859	0.000000	0.117371	-0.000000	-0.319292	-0.000000	-12.718161	157.640114	18.594387	1.580617	0.000000	0.212024	0.000000	-0.067740	-0.000000
1.765000	0.000000	0.000000	0.000000	0.000000	0.000000	0.000000	0.000000	0.000000	0.000000	0.000000	0.000000	0.000000	0.000000	0.000000	0.000000	0.000000	0.000000	0.000000	0.000000	0.000000	0.000000	0.000000	0.000000	0.000000	0.000000	0.000000	0.000000	146.411300	546.611216	14.179321	1.005871	0.000000	0.117348	-0.000000	-0.307535	0.000000	-13.754423	166.197279	19.537980	1.582492	0.000000	0.210468	0.000000	-0.065856	-0.000000
1.765500	0.000000	0.000000	0.000000	0.000000	0.000000	0.000000	0.000000	0.000000	0.000000	0.000000	0.000000	0.000000	0.000000	0.000000	0.000000	0.000000	0.000000	0.000000	0.000000	0.000000	0.000000	0.000000	0.000000	0.000000	0.000000	0.000000	0.000000	146.562812	544.033415	14.036357	1.005883	0.000000	0.117324	-0.000000	-0.296089	0.000000	-14.800849	174.651005	20.482032	1.584335	0.000000	0.208944	0.000000	-0.063888	-0.000000
1.766000	0.000000	0.000000	0.000000	0.000000	0.000000	0.000000	0.000000	0.000000	0.000000	0.000000	0.000000	0.000000	0.000000	0.000000	0.000000	0.000000	0.000000	0.000000	0.000000	0.000000	0.000000	0.000000	0.000000	0.000000	0.000000	0.000000	0.000000	146.701596	541.416270	13.888221	1.005893	0.000000	0.117300	-0.000000	-0.284956	0.000000	-15.856301	182.975574	21.423611	1.586143	0.000000	0.207455	0.000000	-0.061840	-0.000000
1.766500	0.000000	0.000000	0.000000	0.000000	0.000000	0.000000	0.000000	0.000000	0.000000	0.000000	0.000000	0.000000	0.000000	0.000000	0.000000	0.000000	0.000000	0.000000	0.000000	0.000000	0.000000	0.000000	0.000000	0.000000	0.000000	0.000000	0.000000	146.827276	538.759361	13.734896	1.005903	0.000000	0.117276	-0.000000	-0.274133	0.000000	-16.919811	191.146499	22.359681	1.587912	0.000000	0.206003	0.000000	-0.059716	-0.000000
1.767000	0.000000	0.000000	0.000000	0.000000	0.000000	0.000000	0.000000	0.000000	0.000000	0.000000	0.000000	0.000000	0.000000	0.000000	0.000000	0.000000	0.000000	0.000000	0.000000	0.000000	0.000000	0.000000	0.000000	0.000000	0.000000	0.000000	0.000000	146.939458	536.062268	13.576371	1.005912	0.000000	0.117253	-0.000000	-0.263616	0.000000	-17.990599	199.141062	23.287134	1.589642	0.000000	0.204590	0.000000	-0.057521	-0.000000
1.767500	0.000000	0.000000	0.000000	0.000000	0.000000	0.000000	0.000000	0.000000	0.000000	0.000000	0.000000	0.000000	0.000000	0.000000	0.000000	0.000000	0.000000	0.000000	0.000000	0.000000	0.000000	0.000000	0.000000	0.000000	0.000000	0.000000	0.000000	147.037744	533.324563	13.412649	1.005921	0.000000	0.117229	-0.000000	-0.253395	0.000000	-19.068065	206.938759	24.202829	1.591329	0.000000	0.203218	0.000000	-0.055262	-0.000000
1.768000	0.000000	0.000000	0.000000	0.000000	0.000000	0.000000	0.000000	0.000000	0.000000	0.000000	0.000000	0.000000	0.000000	0.000000	0.000000	0.000000	0.000000	0.000000	0.000000	0.000000	0.000000	0.000000	0.000000	0.000000	0.000000	0.000000	0.000000	147.121723	530.545811	13.243738	1.005929	0.000000	0.117205	-0.000000	-0.243460	0.000000	-20.151779	214.521634	25.103647	1.592972	0.000000	0.201890	0.000000	-0.052946	-0.000000
1.768500	0.000000	0.000000	0.000000	0.000000	0.000000	0.000000	0.000000	0.000000	0.000000	0.000000	0.000000	0.000000	0.000000	0.000000	0.000000	0.000000	0.000000	0.000000	0.000000	0.000000	0.000000	0.000000	0.000000	0.000000	0.000000	0.000000	0.000000	147.190974	527.725573	13.069656	1.005936	0.000000	0.117181	-0.000000	-0.233798	0.000000	-21.241456	221.874501	25.986536	1.594569	0.000000	0.200606	0.000000	-0.050581	-0.000000
1.769000	0.000000	0.000000	0.000000	0.000000	0.000000	0.000000	0.000000	0.000000	0.000000	0.000000	0.000000	0.000000	0.000000	0.000000	0.000000	0.000000	0.000000	0.000000	0.000000	0.000000	0.000000	0.000000	0.000000	0.000000	0.000000	0.000000	0.000000	147.245071	524.863405	12.890417	1.005943	0.000000	0.117158	-0.000000	-0.224396	0.000000	-22.336937	228.985053	26.848566	1.596119	0.000000	0.199367	0.000000	-0.048172	-0.000000
1.769500	0.000000	0.000000	0.000000	0.000000	0.000000	0.000000	0.000000	0.000000	0.000000	0.000000	0.000000	0.000000	0.000000	0.000000	0.000000	0.000000	0.000000	0.000000	0.000000	0.000000	0.000000	0.000000	0.000000	0.000000	0.000000	0.000000	0.000000	147.283574	521.958864	12.706038	1.005950	0.000000	0.117134	-0.000000	-0.215241	0.000000	-23.438165	235.843894	27.686977	1.597622	0.000000	0.198174	0.000000	-0.045723	-0.000000
1.770000	0.000000	0.000000	0.000000	0.000000	0.000000	0.000000	0.000000	0.000000	0.000000	0.000000	0.000000	0.000000	0.000000	0.000000	0.000000	0.000000	0.000000	0.000000	0.000000	0.000000	0.000000	0.000000	0.000000	0.000000	0.000000	0.000000	0.000000	147.306033	519.011513	12.516527	1.005956	0.000000	0.117110	-0.000000	-0.206324	0.000000	-24.545159	242.444473	28.499222	1.599076	0.000000	0.197029	0.000000	-0.043238	-0.000000
1.770500	0.000000	0.000000	0.000000	0.000000	0.000000	0.000000	0.000000	0.000000	0.000000	0.000000	0.000000	0.000000	0.000000	0.000000	0.000000	0.000000	0.000000	0.000000	0.000000	0.000000	0.000000	0.000000	0.000000	0.000000	0.000000	0.000000	0.000000	147.311983	516.020937	12.321891	1.005962	0.000000	0.117087	-0.000000	-0.197636	0.000000	-25.657998	248.782962	29.282993	1.600482	0.000000	0.195930	0.000000	-0.040717	-0.000000
1.771000	0.000000	0.000000	0.000000	0.000000	0.000000	0.000000	0.000000	0.000000	0.000000	0.000000	0.000000	0.000000	0.000000	0.000000	0.000000	0.000000	0.000000	0.000000	0.000000	0.000000	0.000000	0.000000	0.000000	0.000000	0.000000	0.000000	0.000000	147.300943	512.986747	12.122135	1.005967	0.000000	0.117063	-0.000000	-0.189170	0.000000	-26.776804	254.858060	30.036241	1.601839	0.000000	0.194879	0.000000	-0.038159	-0.000000
